<svg width="22" height="16" viewBox="0 0 22 16" fill="none" xmlns="http://www.w3.org/2000/svg">
<path d="M15.5 3.5C15.5 1.84315 16.8431 0.5 18.5 0.5C20.1569 0.5 21.5 1.84314 21.5 3.5C21.5 5.15685 20.1569 6.5 18.5 6.5C16.8431 6.5 15.5 5.15685 15.5 3.5Z" stroke="#D9D9D9"/>
<rect x="13" y="5" width="13" height="3" rx="1.5" transform="rotate(180 13 5)" fill="#D9D9D9"/>
<path d="M6.5 12.5C6.5 14.1569 5.15685 15.5 3.5 15.5C1.84315 15.5 0.500001 14.1569 0.500001 12.5C0.5 10.8431 1.84315 9.5 3.5 9.5C5.15685 9.5 6.5 10.8431 6.5 12.5Z" stroke="#D9D9D9"/>
<rect x="9" y="11" width="13" height="3" rx="1.5" fill="#D9D9D9"/>
</svg>
