<?xml version="1.0" encoding="UTF-8"?>
<svg id="Calque_2" width="25" data-name="Calque 2" xmlns="http://www.w3.org/2000/svg" viewBox="0 0 409.05 363.81">
  <defs>
    <style>
      .cls-1 {
        fill: #ecab3f;
      }
    </style>
  </defs>
  <g id="Calque_1-2" data-name="Calque 1">
    <path class="cls-1" d="M0,131.72C0,125.6,0,119.48,0,113.36c.24-1.42,.57-2.82,.72-4.25,2.24-22.09,9.19-42.45,21.73-60.9C47.85,10.85,94.55-7.52,138.54,2.9c25.23,5.98,44.96,20.47,61.13,40.27,1.55,1.9,3.04,3.86,4.55,5.79,.65-.54,.89-.68,1.05-.88,1.32-1.67,2.58-3.39,3.94-5.02C237.12,9.45,272.26-6.17,315.89,2.24c42.1,8.12,70.13,34.05,84.57,73.7,15.97,43.84,9.14,85.54-16.07,124.47-13.99,21.6-31.12,40.6-50.2,57.63-37.43,33.39-75.4,66.15-113.29,99.02-10.75,9.32-22.69,8.9-33.89-.72-29.16-25.06-58.34-50.1-87.33-75.36-24.41-21.26-48.09-43.28-67.53-69.37-12.65-16.98-22.8-35.29-27.85-56.02C2.4,147.75,1.41,139.68,0,131.72Z"/>
  </g>
</svg>