<?xml version="1.0" encoding="UTF-8"?>
<svg id="Calque_2" data-name="Calque 2" width="144px" xmlns="http://www.w3.org/2000/svg" viewBox="0 0 612.89 161.09">
  <defs>
    <style>
      .cls-1 {
        fill: #ecab3e;
      }
    </style>
  </defs>
  <g id="Calque_1-2" data-name="Calque 1">
    <path class="cls-1" d="M64.32,78.75c2.85-1.67,6.13-2.51,9.84-2.51,3.17,0,6.09,.57,8.76,1.7,2.67,1.13,4.96,2.83,6.86,5.1l9.78-9.91c-3.08-3.62-6.81-6.41-11.2-8.35-4.39-1.95-9.12-2.92-14.19-2.92-6.43,0-12.25,1.49-17.45,4.48-5.21,2.99-9.31,7.04-12.29,12.15-2.99,5.12-4.48,10.89-4.48,17.32s1.5,12.09,4.48,17.25c2.98,5.16,7.08,9.23,12.29,12.22,5.2,2.99,11.02,4.48,17.45,4.48,5.07,0,9.8-.97,14.19-2.92s8.13-4.73,11.2-8.35l-9.78-9.91c-1.9,2.26-4.19,3.96-6.86,5.09-2.67,1.13-5.59,1.7-8.76,1.7-3.71,0-6.99-.84-9.84-2.51-2.85-1.67-5.07-3.98-6.66-6.92-1.58-2.94-2.38-6.31-2.38-10.12s.79-7.29,2.38-10.19c1.58-2.9,3.8-5.18,6.66-6.86Z"/>
    <path class="cls-1" d="M117.9,61.85c2.63,0,4.75-.86,6.38-2.58,1.63-1.72,2.45-3.85,2.45-6.38s-.81-4.66-2.45-6.39c-1.63-1.72-3.76-2.58-6.38-2.58s-4.64,.86-6.31,2.58c-1.68,1.72-2.51,3.85-2.51,6.39s.84,4.66,2.51,6.38c1.67,1.72,3.78,2.58,6.31,2.58Z"/>
    <path class="cls-1" d="M157.01,90.77c0-2.9,.63-5.48,1.9-7.74,1.27-2.26,3.04-4.03,5.3-5.3,2.26-1.27,4.84-1.9,7.74-1.9,4.35,0,7.9,1.4,10.66,4.21s4.14,6.38,4.14,10.73v37.62h14.94v-40.88c0-4.25-1.09-8.35-3.26-12.29-2.18-3.94-5.16-7.15-8.96-9.64-3.8-2.49-8.15-3.73-13.04-3.73s-9.12,1.11-12.97,3.33c-2.57,1.48-4.63,3.46-6.45,5.67v-7.64h-14.94v65.19h14.94v-37.62Z"/>
    <path class="cls-1" d="M229.59,125.33c5.21,2.94,11.07,4.42,17.59,4.42,5.07,0,9.86-.95,14.39-2.85,4.53-1.9,8.38-4.71,11.55-8.42l-9.51-9.64c-1.99,2.26-4.42,3.99-7.27,5.16-2.85,1.18-5.95,1.77-9.3,1.77-3.89,0-7.34-.84-10.32-2.51-2.99-1.68-5.3-4.05-6.92-7.13-.78-1.47-1.34-3.06-1.75-4.75h48.6c.27-1.36,.47-2.6,.61-3.74,.14-1.13,.2-2.24,.2-3.33,0-6.25-1.34-11.81-4.01-16.7s-6.34-8.73-11-11.55c-4.66-2.8-10.03-4.21-16.09-4.21s-11.93,1.49-17.04,4.48-9.17,7.04-12.15,12.15c-2.99,5.12-4.48,10.89-4.48,17.32s1.52,12.22,4.55,17.38c3.03,5.16,7.15,9.21,12.36,12.15Zm.07-40.47c1.54-2.94,3.71-5.23,6.52-6.86s6.11-2.45,9.92-2.45,6.68,.73,9.16,2.18,4.42,3.53,5.77,6.25c.76,1.51,1.28,3.26,1.67,5.16h-34.58c.38-1.52,.85-2.97,1.53-4.27Z"/>
    <path class="cls-1" d="M318.61,114.67c-1.72,1-4.26,1.5-7.61,1.5-3.71,0-7.04-.66-9.98-1.97-2.94-1.31-5.55-3.28-7.81-5.91l-9.51,9.51c2.08,2.53,4.52,4.68,7.33,6.45s5.88,3.12,9.24,4.07c3.35,.95,6.83,1.43,10.46,1.43,7.6,0,13.62-1.85,18.06-5.57,4.44-3.71,6.66-8.73,6.66-15.07,0-3.99-.82-7.22-2.45-9.71-1.63-2.49-3.73-4.48-6.31-5.98-2.58-1.49-5.3-2.67-8.15-3.53s-5.57-1.65-8.15-2.38c-2.58-.72-4.68-1.58-6.31-2.58s-2.45-2.4-2.45-4.21,.82-3.03,2.45-3.94c1.63-.9,3.94-1.36,6.92-1.36,3.17,0,5.98,.59,8.42,1.77,2.45,1.17,4.62,2.94,6.52,5.3l9.51-9.51c-2.71-3.71-6.09-6.49-10.12-8.35-4.03-1.85-8.67-2.78-13.92-2.78s-9.26,.81-12.84,2.44c-3.58,1.63-6.34,3.94-8.28,6.93s-2.92,6.56-2.92,10.73c0,3.89,.82,7.06,2.45,9.51,1.63,2.44,3.74,4.37,6.32,5.77,2.58,1.4,5.3,2.51,8.15,3.33s5.57,1.61,8.15,2.38c2.58,.77,4.68,1.7,6.31,2.78,1.63,1.09,2.45,2.63,2.45,4.62s-.86,3.35-2.58,4.34Z"/>
    <rect class="cls-1" x="347.94" y="71.63" width="14.94" height="56.76"/>
    <path class="cls-1" d="M355.41,61.85c2.63,0,4.75-.86,6.38-2.58,1.63-1.72,2.45-3.85,2.45-6.38s-.81-4.66-2.45-6.39c-1.63-1.72-3.76-2.58-6.38-2.58s-4.64,.86-6.31,2.58c-1.68,1.72-2.51,3.85-2.51,6.39s.84,4.66,2.51,6.38c1.67,1.72,3.78,2.58,6.31,2.58Z"/>
    <path class="cls-1" d="M426.17,63.2v7.15c-1.84-2.1-3.91-3.99-6.52-5.38-3.89-2.08-8.42-3.12-13.58-3.12-5.79,0-11.02,1.42-15.68,4.27-4.66,2.86-8.33,6.72-11,11.61-2.67,4.89-4.01,10.41-4.01,16.57s1.34,11.73,4.01,16.7c2.67,4.98,6.34,8.9,11,11.75,4.66,2.85,9.89,4.27,15.68,4.27,5.07,0,9.55-1.04,13.44-3.12,2.66-1.42,4.78-3.36,6.66-5.54v7.31c0,4.5-1.26,16.3-3.79,19.18-.81,.92-2.06,1.37-3.29,1.37l-293.72,.04V71.63h-14.94v89.46H419.59s3.81,.04,5.04-.25c5.63-1.35,9.22-6.02,12.12-10.68,2.9-4.66,4.35-18.24,4.35-24.48V63.2h-14.94Zm-1.29,40.95c-1.49,2.76-3.6,4.91-6.31,6.45-2.71,1.54-5.89,2.31-9.51,2.31s-6.81-.77-9.57-2.31c-2.76-1.54-4.91-3.71-6.45-6.52-1.54-2.8-2.31-6.02-2.31-9.64s.77-6.94,2.31-9.71c1.54-2.76,3.69-4.91,6.45-6.45,2.76-1.54,5.95-2.31,9.57-2.31s6.79,.77,9.51,2.31,4.82,3.69,6.31,6.45c1.5,2.76,2.24,6,2.24,9.71s-.75,6.95-2.24,9.71Z"/>
    <path class="cls-1" d="M505.07,65.1c-3.8-2.17-8.15-3.26-13.04-3.26s-9.12,1.11-12.97,3.33c-2.57,1.48-4.63,3.46-6.45,5.67v-26.93h-14.94v84.47h14.94v-37.62c0-2.9,.63-5.48,1.9-7.74,1.27-2.26,3.04-4.03,5.3-5.3,2.26-1.27,4.84-1.9,7.74-1.9,4.35,0,7.9,1.4,10.66,4.21s4.14,6.38,4.14,10.73v37.62h14.94v-40.88c0-5.07-1.09-9.53-3.26-13.38-2.18-3.85-5.16-6.86-8.96-9.03Z"/>
    <polygon class="cls-1" points="557.35 63.2 557.35 43.92 542.41 43.92 542.41 63.2 526.8 63.2 526.8 76.78 542.41 76.78 542.41 128.39 557.35 128.39 557.35 76.78 572.97 76.78 572.97 63.2 557.35 63.2"/>
    <path class="cls-1" d="M612.89,129.75h-15.03V19.42c0-2.07-2.9-4.38-6.77-4.38H21.8c-3.88,0-6.77,2.31-6.77,4.38v110.33H0V19.42C0,8.71,9.78,0,21.8,0H591.09c12.02,0,21.8,8.71,21.8,19.42v110.33Z"/>
  </g>
</svg>