<?xml version="1.0" encoding="UTF-8"?>
<svg id="Calque_2" data-name="Calque 2" xmlns="http://www.w3.org/2000/svg" viewBox="0 0 347.49 335.4">
  <defs>
    <style>
      .cls-1 {
        fill: #f5b51a;
      }
    </style>
  </defs>
  <g id="Layer_1" data-name="Layer 1">
    <path class="cls-1" d="M88.54,131.78h4.28c79.98,0,159.96,.11,239.94-.15,9.52-.03,14.79,6.09,14.74,14.54-.29,50.52-.14,101.05-.15,151.57,0,22.33-15.26,37.64-37.51,37.64-86.84,0-173.68,0-260.53,0-22.01,0-37.38-15.38-37.39-37.39-.01-50.65-.02-101.3,.04-151.95,0-2.32,.65-4.63,.97-6.95,.1-.69,.26-1.44,.12-2.1C8.78,116.3,4.43,95.61,.22,74.9c-1.25-6.14,2.91-12.14,9.5-13.54,15.58-3.3,31.2-6.42,46.82-9.53,36.85-7.35,73.72-14.63,110.57-21.98,37.1-7.4,74.18-14.85,111.27-22.29,11.96-2.4,23.91-4.8,35.87-7.21,7.67-1.55,13.59,2.19,15.2,9.97,3.97,19.25,7.84,38.53,11.67,57.81,1.34,6.75-2.53,12.83-9.42,14.28-18.25,3.84-36.55,7.47-54.85,11.13-39.41,7.88-78.82,15.72-118.23,23.59-23.06,4.61-46.12,9.23-69.18,13.86-.33,.07-.64,.23-.96,.34,.01,.15,.03,.31,.04,.46Zm-52.69,83.95v4.06c0,25.82,0,51.64,0,77.46,0,9.58,4.65,14.21,14.26,14.21,86.33,0,172.67,0,259,0,9.57,0,14.29-4.69,14.3-14.18,.01-25.95,0-51.89,0-77.84,0-1.2-.11-2.4-.17-3.71H35.84Zm150.93-60.01c-17.05,0-32.88-.04-48.7,.09-1.13,0-2.43,1.08-3.34,1.98-9.75,9.66-19.43,19.39-29.15,29.07-1.38,1.37-2.92,2.57-4.28,3.75,.55,.75,.62,.92,.69,.92,15.72,.05,31.43,.12,47.15,.09,.88,0,1.97-.47,2.6-1.09,11.43-11.29,22.81-22.64,35.04-34.81Zm83.37,.49c-.95-.29-1.27-.47-1.59-.47-15.35-.02-30.69-.08-46.04,.07-1.36,.01-2.97,1.08-4.02,2.12-10.39,10.25-20.69,20.6-31,30.93-.73,.73-1.37,1.57-2.44,2.82,16.48,0,32.3,.04,48.12-.09,1.13,0,2.44-1.07,3.34-1.97,9.22-9.13,18.37-18.33,27.56-27.49,1.91-1.9,3.86-3.76,6.07-5.91Zm-89.89-67.99c-.38-.62-.46-.89-.64-1.01-13.06-8.73-26.1-17.47-39.22-26.11-.89-.59-2.33-.78-3.41-.58-9.67,1.79-19.31,3.69-28.95,5.6-5.73,1.14-11.43,2.36-17.92,3.7,14.06,9.35,27.3,18.22,40.64,26.94,1.07,.7,2.87,.76,4.21,.5,15.02-2.93,30.02-5.98,45.28-9.05Zm-7.83-34.93c1.8,1.27,2.88,2.06,4,2.81,11.49,7.67,23.04,15.26,34.44,23.05,2.48,1.69,4.75,2.14,7.62,1.49,5.81-1.32,11.69-2.35,17.54-3.53,8.78-1.77,17.56-3.57,27.11-5.52-14.05-9.38-27.37-18.3-40.75-27.13-.8-.53-2.12-.63-3.11-.44-15.36,2.99-30.7,6.06-46.85,9.26ZM36.03,191.68c9.38,0,18.58,.11,27.78-.1,1.74-.04,3.86-.95,5.11-2.17,10.44-10.2,20.71-20.57,31.03-30.9,.73-.73,1.35-1.56,2.16-2.51H36.03v35.68Zm62.16-87.03c-.66-.73-.86-1.06-1.15-1.25-12.96-8.65-25.91-17.3-38.9-25.9-.75-.49-1.86-.87-2.69-.72-9.63,1.82-19.25,3.75-29.13,5.7,2.37,11.86,4.67,23.38,7.02,35.13,21.75-4.35,43.07-8.61,64.85-12.97Zm170.42,86.76h54.49v-35.69c-5.78,0-11.27-.06-16.75,.05-1.01,.02-2.27,.42-2.96,1.11-11.44,11.28-22.81,22.63-34.77,34.54Zm-14.05-154.51c14.05,9.38,27.37,18.29,40.72,27.15,.66,.43,1.65,.73,2.4,.59,5.81-1.06,11.6-2.25,17.46-3.41-2.4-11.93-4.71-23.42-7.05-35.03-17.87,3.57-35.27,7.05-53.54,10.71Z"/>
  </g>
</svg>