<svg width="21" height="21" viewBox="0 0 21 21" fill="none" xmlns="http://www.w3.org/2000/svg">
<path fill-rule="evenodd" clip-rule="evenodd" d="M2.92308 8.49999C2.92308 5.16963 5.60501 2.83332 8.46154 2.83332C11.3181 2.83332 14 5.16963 14 8.49999C14 11.8303 11.3181 14.1667 8.46154 14.1667C5.60501 14.1667 2.92308 11.8303 2.92308 8.49999ZM12.8858 15.6048C11.5985 16.384 10.0833 16.8333 8.46154 16.8333C3.78836 16.8333 0 13.1024 0 8.49999C0 3.89762 3.78836 0.166656 8.46154 0.166656C13.1347 0.166656 16.9231 3.89762 16.9231 8.49999C16.9231 10.3265 16.3264 12.0157 15.3146 13.389C15.4672 13.4772 15.6082 13.589 15.7315 13.7241L19.6045 17.9677C20.2393 18.6633 20.1632 19.7107 19.4346 20.3072C18.7059 20.9038 17.6007 20.8235 16.9659 20.1279L13.0929 15.8843C13.0125 15.7963 12.9435 15.7026 12.8858 15.6048Z" fill="#F6B506"/>
</svg>
