<?xml version="1.0" encoding="UTF-8"?>
<svg id="Calque_2" data-name="Calque 2" xmlns="http://www.w3.org/2000/svg" viewBox="0 0 343.33 147">
  <defs>
    <style>
      .cls-1 {
        fill: #F6B506;
      }
    </style>
  </defs>
  <g id="Calque_1-2" data-name="Calque 1">
    <g>
      <rect class="cls-1" x="159.22" y="0" width="184.11" height="64.28" rx="32.14" ry="32.14"/>
      <rect class="cls-1" y="82.72" width="202.76" height="64.28" rx="32.14" ry="32.14"/>
      <polygon class="cls-1" points="18.11 64.28 32.67 64.28 32.67 12.17 50.33 12.17 50.33 0 0 0 0 12.17 18.11 12.17 18.11 64.28"/>
      <polygon class="cls-1" points="85.02 27.97 100.99 64.07 110.95 64.28 126.39 27.97 126.39 64.28 142.23 64.28 142.23 .42 120.7 .42 105.62 37.17 89.15 .42 69.17 .42 69.17 64.28 85.02 64.28 85.02 27.97"/>
      <path class="cls-1" d="M267.61,91.69c-3.07-2.88-6.65-5.1-10.74-6.65-4.1-1.55-8.58-2.32-13.43-2.32h-23.7v64.28h23.89c4.79,0,9.24-.79,13.34-2.37,4.1-1.58,7.66-3.81,10.7-6.69,3.03-2.88,5.4-6.28,7.1-10.2,1.7-3.92,2.55-8.21,2.55-12.88s-.85-9.14-2.55-13.02c-1.7-3.88-4.08-7.27-7.14-10.15Zm-7.51,33.6c-1.58,2.95-3.81,5.2-6.69,6.78-2.89,1.58-6.27,2.37-10.15,2.37h-9.13v-39.15h9.13c3.82,0,7.17,.77,10.05,2.32,2.88,1.54,5.13,3.79,6.74,6.73,1.61,2.95,2.41,6.42,2.41,10.42s-.79,7.57-2.36,10.52Z"/>
      <path class="cls-1" d="M332.44,112.49c1.51-.83,2.81-1.81,3.88-2.94,2.5-2.65,3.75-5.97,3.75-9.97,0-2.98-.73-5.72-2.19-8.22-1.46-2.5-3.62-4.5-6.48-5.99-2.86-1.49-6.32-2.23-10.37-2.23h-27.17v63.11h27c4.47,0,8.3-.82,11.49-2.46,3.19-1.64,5.63-3.83,7.33-6.57,1.7-2.74,2.55-5.84,2.55-9.3,0-4.53-1.43-8.34-4.29-11.44-1.49-1.61-3.32-2.94-5.49-3.98Zm-14.09-18.36c2.26,0,4.11,.58,5.54,1.74,1.43,1.16,2.14,2.88,2.14,5.14,0,2.38-.71,4.14-2.14,5.27-1.43,1.13-3.28,1.7-5.54,1.7h-10.55v-13.86h10.55Zm7.51,38.75c-1.55,1.58-3.67,2.37-6.35,2.37h-11.71v-16.54h11.71c1.79,0,3.32,.36,4.6,1.07,1.28,.72,2.28,1.7,3,2.95s1.07,2.65,1.07,4.2c0,2.38-.78,4.37-2.32,5.94Z"/>
    </g>
  </g>
</svg>