<?xml version="1.0" encoding="UTF-8"?>
<svg id="Calque_2" data-name="Calque 2" xmlns="http://www.w3.org/2000/svg" viewBox="0 0 234.54 105.05">
  <defs>
    <style>
      .cls-1 {
        fill: #f7b609;
      }
    </style>
  </defs>
  <g id="Calque_1-2" data-name="Calque 1">
    <path class="cls-1" d="M59.47,52.53c0-20.57,10.7-38.63,26.83-48.95,1.79-1.14,.74-3.9-1.35-3.54C49.31,6.16,19.72,22.09,3.22,43.18c-4.29,5.49-4.29,13.2,0,18.68,16.5,21.09,46.09,37.02,81.72,43.15,2.09,.36,3.14-2.4,1.35-3.54-16.13-10.32-26.83-28.38-26.83-48.95Z"/>
    <path class="cls-1" d="M150.65,.11c-2.16-.38-3.31,2.49-1.48,3.69,15.93,10.36,26.48,28.31,26.48,48.73s-10.54,38.37-26.48,48.73c-1.84,1.19-.68,4.06,1.48,3.69,34.5-6.03,63.3-21.26,79.95-41.45,5.25-6.37,5.25-15.56,0-21.93C213.95,21.37,185.15,6.14,150.65,.11Z"/>
    <path class="cls-1" d="M152.75,44.84h-26.15c-.72,0-1.3-.58-1.3-1.3V17.34c0-.72-.58-1.3-1.3-1.3h-12.87c-.72,0-1.3,.58-1.3,1.3v26.2c0,.72-.58,1.3-1.3,1.3h-26.15c-.72,0-1.3,.58-1.3,1.3v12.77c0,.72,.58,1.3,1.3,1.3h26.15c.72,0,1.3,.58,1.3,1.3v26.2c0,.72,.58,1.3,1.3,1.3h12.87c.72,0,1.3-.58,1.3-1.3v-26.2c0-.72,.58-1.3,1.3-1.3h26.15c.72,0,1.3-.58,1.3-1.3v-12.77c0-.72-.58-1.3-1.3-1.3Z"/>
  </g>
</svg>